<svg width="168" height="38" viewBox="0 0 168 38" fill="none" xmlns="http://www.w3.org/2000/svg">
<g clip-path="url(#clip0_4501_15)">
<path fill-rule="evenodd" clip-rule="evenodd" d="M33.3306 11.2734L33.1055 10.8775C32.8151 10.3989 32.4056 10.001 31.9157 9.72169L21.1271 3.59419C20.6386 3.31512 20.0841 3.16767 19.5192 3.16669H19.053C18.4881 3.16767 17.9336 3.31512 17.4451 3.59419L6.65649 9.73752C6.16926 10.015 5.76455 10.4136 5.48276 10.8934L5.25766 11.2892C4.97428 11.7703 4.82454 12.3164 4.82355 12.8725L4.82355 25.1434C4.82454 25.6996 4.97428 26.2457 5.25766 26.7267L5.48276 27.1225C5.77184 27.5967 6.17492 27.9937 6.65649 28.2784L17.4612 34.4059C17.9472 34.6907 18.5034 34.8386 19.069 34.8333H19.5192C20.0841 34.8324 20.6386 34.685 21.1271 34.4059L31.9157 28.2625C32.4077 27.9913 32.814 27.5912 33.0894 27.1067L33.3306 26.7109C33.6105 26.2284 33.76 25.6833 33.7647 25.1275V12.8567C33.7637 12.3005 33.6141 11.7544 33.3306 11.2734ZM20.902 30.875L30.3079 25.5234L30.549 25.1275L30.549 14.4242L20.902 19.9184V30.875Z" fill="#131111"/>
<path fill-rule="evenodd" clip-rule="evenodd" d="M20.906 30.8395L30.0252 37.49L30.5 37.5L40.291 30.2272L30.4844 24.6029L20.906 30.8395Z" fill="#F4F2F0"/>
</g>
<path d="M98.1482 25.3288V12.5278H102.123V14.0763C102.587 13.4225 103.138 12.9493 103.774 12.6568C104.411 12.3643 105.125 12.2181 105.917 12.2181C107.517 12.2181 108.73 12.7342 109.556 13.7666C110.381 14.7817 110.794 16.1066 110.794 17.7411V25.3288H106.846V18.2315C106.846 17.4228 106.648 16.7776 106.252 16.2958C105.856 15.7969 105.263 15.5474 104.471 15.5474C103.697 15.5474 103.112 15.8055 102.716 16.3216C102.321 16.8206 102.123 17.4572 102.123 18.2315V25.3288H98.1482Z" fill="#131111"/>
<path d="M90.5319 25.6385C89.3447 25.6385 88.2522 25.389 87.2542 24.8901C86.2563 24.3739 85.4562 23.6168 84.854 22.6189C84.2518 21.621 83.9507 20.3908 83.9507 18.9283C83.9507 17.4658 84.2432 16.2356 84.8282 15.2377C85.4132 14.2397 86.2047 13.4913 87.2026 12.9923C88.2005 12.4762 89.3103 12.2181 90.5319 12.2181C91.8051 12.2181 92.9235 12.4848 93.887 13.0181C94.8677 13.5343 95.6334 14.2828 96.184 15.2635C96.7518 16.227 97.0357 17.3798 97.0357 18.7218C97.0357 18.8939 97.027 19.0831 97.0098 19.2896C97.0098 19.4789 96.9926 19.6767 96.9582 19.8832H87.9253C87.9769 20.5026 88.1231 20.993 88.364 21.3543C88.6221 21.7156 88.9318 21.9823 89.2931 22.1544C89.6716 22.3092 90.0416 22.3866 90.4029 22.3866C90.9018 22.3866 91.3234 22.2834 91.6675 22.0769C92.0116 21.8705 92.2783 21.5522 92.4675 21.122H96.726C96.5367 21.9307 96.1582 22.6791 95.5904 23.3674C95.0226 24.0556 94.3086 24.6062 93.4483 25.0191C92.6052 25.432 91.6331 25.6385 90.5319 25.6385ZM87.9253 17.6637H92.9321C92.9321 16.9582 92.6998 16.4077 92.2353 16.0119C91.7707 15.6162 91.1857 15.4183 90.4803 15.4183C89.7921 15.4183 89.2243 15.6248 88.7769 16.0377C88.3296 16.4335 88.0457 16.9754 87.9253 17.6637Z" fill="#131111"/>
<path d="M69.3405 31.0067V12.5278H73.3408V14.257C73.7538 13.5859 74.3216 13.0784 75.0442 12.7342C75.784 12.3901 76.5583 12.2181 77.367 12.2181C78.5025 12.2181 79.5005 12.5106 80.3607 13.0956C81.221 13.6634 81.892 14.4548 82.3738 15.4699C82.8728 16.4679 83.1223 17.6121 83.1223 18.9025C83.1223 20.1413 82.89 21.2769 82.4254 22.3092C81.9609 23.3243 81.2985 24.133 80.4382 24.7352C79.5779 25.3374 78.5541 25.6385 77.367 25.6385C76.5583 25.6385 75.7926 25.475 75.07 25.1481C74.3474 24.8212 73.771 24.3137 73.3408 23.6254V31.0067H69.3405ZM76.1798 22.1544C76.7476 22.1544 77.2465 22.0167 77.6767 21.7414C78.1068 21.4661 78.4423 21.0876 78.6832 20.6058C78.9241 20.1069 79.0445 19.5391 79.0445 18.9025C79.0445 18.197 78.9069 17.6121 78.6316 17.1475C78.3735 16.6657 78.0294 16.3044 77.5992 16.0635C77.1691 15.8227 76.6959 15.7022 76.1798 15.7022C75.6464 15.7022 75.1646 15.8313 74.7345 16.0894C74.3044 16.3474 73.9602 16.7174 73.7022 17.1991C73.4441 17.6809 73.315 18.2573 73.315 18.9283C73.315 19.5477 73.4355 20.1069 73.6763 20.6058C73.9172 21.0876 74.2527 21.4661 74.6829 21.7414C75.1302 22.0167 75.6292 22.1544 76.1798 22.1544Z" fill="#131111"/>
<path d="M58.4201 25.6385C57.1813 25.6385 55.9941 25.4235 54.8585 24.9933C53.7402 24.5632 52.7336 23.9438 51.8389 23.1351C50.9614 22.3264 50.2646 21.3457 49.7484 20.1929C49.2495 19.0402 49 17.7411 49 16.2959C49 14.8506 49.2495 13.5516 49.7484 12.3988C50.2646 11.246 50.9614 10.2653 51.8389 9.45661C52.7336 8.64794 53.7402 8.02854 54.8585 7.5984C55.9941 7.16826 57.1813 6.95319 58.4201 6.95319C59.6589 6.95319 60.8461 7.16826 61.9817 7.5984C63.1173 8.02854 64.1238 8.64794 65.0013 9.45661C65.896 10.2653 66.6014 11.246 67.1176 12.3988C67.6337 13.5516 67.8918 14.8506 67.8918 16.2959C67.8918 17.7411 67.6337 19.0402 67.1176 20.1929C66.6014 21.3457 65.896 22.3264 65.0013 23.1351C64.1238 23.9438 63.1173 24.5632 61.9817 24.9933C60.8461 25.4235 59.6589 25.6385 58.4201 25.6385ZM58.4201 21.9479C59.2632 21.9479 60.0891 21.7415 60.8977 21.3285C61.7064 20.9156 62.3688 20.2962 62.885 19.4703C63.4183 18.6272 63.685 17.5691 63.685 16.2959C63.685 15.0054 63.4183 13.9473 62.885 13.1214C62.3516 12.2783 61.6806 11.6589 60.8719 11.2632C60.0632 10.8503 59.246 10.6438 58.4201 10.6438C57.5942 10.6438 56.777 10.8503 55.9683 11.2632C55.1768 11.6589 54.5144 12.2783 53.981 13.1214C53.4649 13.9473 53.2068 15.0054 53.2068 16.2959C53.2068 17.5691 53.4649 18.6272 53.981 19.4703C54.4972 20.2962 55.151 20.9156 55.9425 21.3285C56.7512 21.7415 57.577 21.9479 58.4201 21.9479Z" fill="#131111"/>
<path d="M153.279 31.0468V12.5679H157.28V14.2971C157.693 13.6261 158.26 13.1185 158.983 12.7744C159.723 12.4303 160.497 12.2582 161.306 12.2582C162.441 12.2582 163.439 12.5507 164.3 13.1357C165.16 13.7035 165.831 14.495 166.313 15.5101C166.812 16.508 167.061 17.6522 167.061 18.9426C167.061 20.1814 166.829 21.317 166.364 22.3494C165.9 23.3645 165.237 24.1732 164.377 24.7754C163.517 25.3776 162.493 25.6787 161.306 25.6787C160.497 25.6787 159.731 25.5152 159.009 25.1883C158.286 24.8614 157.71 24.3538 157.28 23.6656V31.0468H153.279ZM160.119 22.1945C160.686 22.1945 161.185 22.0569 161.615 21.7816C162.046 21.5063 162.381 21.1278 162.622 20.646C162.863 20.147 162.983 19.5793 162.983 18.9426C162.983 18.2372 162.846 17.6522 162.57 17.1877C162.312 16.7059 161.968 16.3446 161.538 16.1037C161.108 15.8628 160.635 15.7424 160.119 15.7424C159.585 15.7424 159.103 15.8714 158.673 16.1295C158.243 16.3876 157.899 16.7575 157.641 17.2393C157.383 17.721 157.254 18.2974 157.254 18.9684C157.254 19.5879 157.374 20.147 157.615 20.646C157.856 21.1278 158.192 21.5063 158.622 21.7816C159.069 22.0569 159.568 22.1945 160.119 22.1945Z" fill="#131111"/>
<path d="M145.265 25.6787C144.026 25.6787 142.89 25.4206 141.858 24.9044C140.843 24.371 140.025 23.6054 139.406 22.6074C138.804 21.6095 138.503 20.3965 138.503 18.9684C138.503 17.6092 138.795 16.4306 139.38 15.4327C139.982 14.4348 140.8 13.6605 141.832 13.1099C142.864 12.5421 144.026 12.2582 145.316 12.2582C146.693 12.2582 147.888 12.5507 148.904 13.1357C149.919 13.7035 150.71 14.495 151.278 15.5101C151.846 16.508 152.13 17.6608 152.13 18.9684C152.13 20.3277 151.829 21.5149 151.226 22.53C150.624 23.528 149.807 24.3022 148.775 24.8528C147.742 25.4034 146.572 25.6787 145.265 25.6787ZM145.29 22.2203C145.858 22.2203 146.349 22.0827 146.761 21.8074C147.174 21.5321 147.493 21.145 147.716 20.646C147.957 20.147 148.078 19.5793 148.078 18.9426C148.078 18.2372 147.949 17.6522 147.691 17.1877C147.45 16.7059 147.114 16.3446 146.684 16.1037C146.271 15.8628 145.807 15.7424 145.29 15.7424C144.757 15.7424 144.275 15.8714 143.845 16.1295C143.432 16.3876 143.105 16.7575 142.864 17.2393C142.624 17.721 142.503 18.2974 142.503 18.9684C142.503 19.6051 142.615 20.1728 142.839 20.6718C143.079 21.1536 143.406 21.5321 143.819 21.8074C144.232 22.0827 144.723 22.2203 145.29 22.2203Z" fill="#131111"/>
<path d="M124.849 25.369L124.833 7.30304H128.824V14.1165C129.288 13.4627 129.839 12.9895 130.476 12.697C131.112 12.4045 131.826 12.2583 132.618 12.2583C134.218 12.2583 135.431 12.7744 136.257 13.8068C137.083 14.8219 137.495 16.1468 137.495 17.7813V25.369H133.547V18.2717C133.547 17.463 133.349 16.8178 132.953 16.336C132.557 15.8371 131.964 15.5876 131.172 15.5876C130.398 15.5876 129.813 15.8457 129.417 16.3618C129.022 16.8608 128.824 17.4974 128.824 18.2717V25.369H124.849Z" fill="#131111"/>
<path d="M118.405 25.6787C117.476 25.6787 116.555 25.5152 115.643 25.1883C114.749 24.8442 114 24.3452 113.398 23.6914C112.796 23.0204 112.46 22.1945 112.391 21.2138H116.34C116.409 21.6955 116.633 22.0741 117.011 22.3494C117.407 22.6074 117.854 22.7365 118.353 22.7365C118.766 22.7365 119.127 22.6591 119.437 22.5042C119.764 22.3322 119.928 22.0569 119.928 21.6783C119.928 21.3686 119.781 21.1278 119.489 20.9557C119.196 20.7664 118.852 20.6202 118.456 20.517C118.078 20.4137 117.742 20.3277 117.45 20.2589C116.641 20.0524 115.884 19.8201 115.179 19.562C114.473 19.304 113.897 18.9254 113.45 18.4265C113.019 17.9275 112.804 17.2221 112.804 16.3102C112.804 15.4327 113.045 14.6928 113.527 14.0906C114.009 13.4884 114.654 13.0325 115.463 12.7228C116.271 12.4131 117.157 12.2582 118.121 12.2582C119.635 12.2582 120.882 12.6368 121.863 13.3938C122.861 14.1337 123.446 15.2348 123.618 16.6973H119.928C119.841 16.1811 119.626 15.8112 119.282 15.5875C118.938 15.3467 118.508 15.2262 117.992 15.2262C117.613 15.2262 117.278 15.3036 116.985 15.4585C116.693 15.5961 116.547 15.8542 116.547 16.2327C116.547 16.5424 116.684 16.7919 116.96 16.9812C117.252 17.1533 117.588 17.2823 117.966 17.3683C118.345 17.4544 118.689 17.5404 118.998 17.6264C119.824 17.8329 120.581 18.0738 121.27 18.349C121.975 18.6243 122.551 19.0201 122.999 19.5362C123.446 20.0352 123.678 20.7578 123.696 21.7042C123.696 22.5472 123.446 23.2699 122.947 23.8721C122.465 24.4571 121.82 24.9044 121.011 25.2141C120.22 25.5238 119.351 25.6787 118.405 25.6787Z" fill="#131111"/>
<defs>
<clipPath id="clip0_4501_15">
<rect width="41" height="38" fill="white"/>
</clipPath>
</defs>
</svg>
